<svg xmlns="http://www.w3.org/2000/svg" viewBox="0 0 64 64" fill="none">
  <defs>
    <linearGradient id="ribbon" x1="10" y1="11" x2="47" y2="48" gradientUnits="userSpaceOnUse">
      <stop offset="0" stop-color="#2FD07E" />
      <stop offset="1" stop-color="#19A95F" />
    </linearGradient>
  </defs>
  <path
    d="M14.158 8C11.307 8 9.864 11.453 11.874 13.47L25.42 27.063C26.17 27.816 27.189 28.239 28.252 28.239H37.313L17.726 47.908C15.587 50.056 12.683 51.264 9.654 51.264H4.25C1.903 51.264 0 53.174 0 55.529C0 57.883 1.903 59.793 4.25 59.793H10.67C16.65 59.793 22.384 57.408 26.612 53.165L60.768 18.874C63.446 16.186 61.549 11.588 57.769 11.588H43.552C42.487 11.588 41.466 11.163 40.715 10.407L37.654 7.331C37.267 6.942 36.742 6.723 36.194 6.723H14.158V8Z"
    fill="url(#ribbon)"
  />
  <path
    d="M25.42 27.063C26.17 27.816 27.189 28.239 28.252 28.239H37.313L29.955 20.852C32.014 18.784 33.17 15.984 33.17 13.064C33.17 11.289 32.741 9.541 31.921 8H14.158C11.307 8 9.864 11.453 11.874 13.47L25.42 27.063Z"
    fill="#117347"
  />
</svg>
